<svg width="45" height="45" viewBox="0 0 45 45" fill="none" xmlns="http://www.w3.org/2000/svg">
<path d="M26.4362 22.5L44.0237 4.94045C44.5493 4.41477 44.8447 3.70179 44.8447 2.95836C44.8447 2.21494 44.5493 1.50196 44.0237 0.976279C43.498 0.450598 42.785 0.155273 42.0416 0.155273C41.2981 0.155273 40.5852 0.450598 40.0595 0.976279L22.4999 18.5638L4.94033 0.976279C4.41465 0.450598 3.70167 0.155274 2.95824 0.155274C2.21482 0.155274 1.50184 0.450598 0.976161 0.976279C0.45048 1.50196 0.155156 2.21494 0.155156 2.95836C0.155156 3.70179 0.45048 4.41477 0.976161 4.94045L18.5637 22.5L0.976161 40.0596C0.714502 40.3191 0.506819 40.6279 0.36509 40.9681C0.223361 41.3083 0.150391 41.6732 0.150391 42.0417C0.150391 42.4102 0.223361 42.7751 0.36509 43.1153C0.506819 43.4555 0.714502 43.7643 0.976161 44.0238C1.23568 44.2854 1.54444 44.4931 1.88463 44.6349C2.22482 44.7766 2.58971 44.8495 2.95824 44.8495C3.32678 44.8495 3.69166 44.7766 4.03185 44.6349C4.37204 44.4931 4.68081 44.2854 4.94033 44.0238L22.4999 26.4363L40.0595 44.0238C40.319 44.2854 40.6278 44.4931 40.968 44.6349C41.3082 44.7766 41.673 44.8495 42.0416 44.8495C42.4101 44.8495 42.775 44.7766 43.1152 44.6349C43.4554 44.4931 43.7641 44.2854 44.0237 44.0238C44.2853 43.7643 44.493 43.4555 44.6347 43.1153C44.7765 42.7751 44.8494 42.4102 44.8494 42.0417C44.8494 41.6732 44.7765 41.3083 44.6347 40.9681C44.493 40.6279 44.2853 40.3191 44.0237 40.0596L26.4362 22.5Z" fill="black"/>
</svg>
