<svg width="11" height="20" viewBox="0 0 11 20" fill="none" xmlns="http://www.w3.org/2000/svg">
<path fill-rule="evenodd" clip-rule="evenodd" d="M0.36652 19.708C0.77152 20.098 1.42652 20.098 1.83052 19.708L10.3935 11.444C10.5852 11.2619 10.7378 11.0426 10.8421 10.7996C10.9464 10.5566 11.0002 10.295 11.0002 10.0305C11.0002 9.76609 10.9464 9.50442 10.8421 9.26142C10.7378 9.01843 10.5852 8.79918 10.3935 8.61702L1.76852 0.292021C1.57277 0.105968 1.31355 0.0013942 1.0435 -0.000463112C0.773443 -0.00232043 0.512807 0.098678 0.31452 0.282021C0.216291 0.372561 0.137696 0.482302 0.0836001 0.60445C0.0295044 0.726597 0.00106027 0.858549 2.90802e-05 0.992135C-0.00100211 1.12572 0.0254016 1.2581 0.0776052 1.38107C0.129809 1.50403 0.206701 1.61497 0.30352 1.70702L8.19752 9.32402C8.29344 9.41511 8.36982 9.52476 8.42201 9.64631C8.47421 9.76785 8.50112 9.89874 8.50112 10.031C8.50112 10.1633 8.47421 10.2942 8.42201 10.4157C8.36982 10.5373 8.29344 10.6469 8.19752 10.738L0.36652 18.295C0.27063 18.386 0.194268 18.4956 0.142085 18.6171C0.089903 18.7385 0.0629923 18.8693 0.0629923 19.0015C0.0629923 19.1337 0.089903 19.2645 0.142085 19.386C0.194268 19.5075 0.27063 19.617 0.36652 19.708Z" fill="black"/>
</svg>
