<svg width="87" height="87" viewBox="0 0 87 87" fill="none" xmlns="http://www.w3.org/2000/svg">
<path d="M2.29664 0.679581C2.6114 0.677689 2.92123 0.747726 3.19508 0.882698L85.8513 42.1483C86.1236 42.2857 86.3496 42.4828 86.5068 42.72C86.6639 42.9572 86.7466 43.2262 86.7466 43.4999C86.7466 43.7736 86.6639 44.0425 86.5068 44.2798C86.3496 44.5169 86.1236 44.7141 85.8513 44.8514L3.19508 86.1171C2.92139 86.2545 2.61088 86.3267 2.29485 86.3264C1.97883 86.3261 1.66847 86.2534 1.3951 86.1155C1.12173 85.9777 0.89502 85.7795 0.737823 85.5411C0.580627 85.3027 0.498505 85.0325 0.499763 84.7577V2.24208C0.498505 1.96675 0.58094 1.69602 0.738708 1.45731C0.896484 1.21859 1.12399 1.02036 1.3982 0.882698C1.67205 0.747726 1.98186 0.677689 2.29664 0.679581ZM81.3591 43.4999L4.09351 4.93739V82.0624L81.3591 43.4999Z" fill="#F2EFEB"/>
</svg>
