<svg width="87" height="87" viewBox="0 0 87 87" fill="none" xmlns="http://www.w3.org/2000/svg">
<path d="M84.9499 86.1468C84.6352 86.1487 84.3254 86.0787 84.0515 85.9437L1.39525 44.6781C1.12296 44.5407 0.896934 44.3436 0.739816 44.1064C0.582698 43.8692 0.5 43.6003 0.5 43.3265C0.5 43.0528 0.582698 42.7839 0.739816 42.5467C0.896934 42.3095 1.12296 42.1123 1.39525 41.975L84.0515 0.709342C84.3252 0.571938 84.6357 0.499729 84.9517 0.500001C85.2678 0.500272 85.5781 0.573014 85.8515 0.710889C86.1249 0.848763 86.3516 1.04689 86.5088 1.28529C86.666 1.52368 86.7481 1.79391 86.7468 2.06872V84.5843C86.7481 84.8597 86.6656 85.1304 86.5079 85.3691C86.3501 85.6078 86.1226 85.8061 85.8484 85.9437C85.5745 86.0787 85.2647 86.1487 84.9499 86.1468ZM5.88744 43.3265L83.1531 81.889V4.76403L5.88744 43.3265Z" fill="#F2EFEB"/>
</svg>
