<svg width="17" height="10" viewBox="0 0 17 10" fill="none" xmlns="http://www.w3.org/2000/svg">
<path d="M7.31803 0.326C7.30803 0.338 7.30403 0.353999 7.29403 0.365999L0.31203 8.08C-0.0779701 8.514 -0.0779701 9.218 0.31203 9.652C0.31603 9.656 0.320029 9.658 0.324029 9.66C0.4108 9.76509 0.519473 9.84996 0.642453 9.90869C0.765433 9.96742 0.899754 9.99858 1.03603 10H15.002C15.1408 9.99776 15.2774 9.96507 15.4022 9.90425C15.5269 9.84342 15.6368 9.75595 15.724 9.648L15.728 9.652C15.9168 9.43363 16.0206 9.15463 16.0206 8.866C16.0206 8.57737 15.9168 8.29837 15.728 8.08L8.73003 0.326C8.64291 0.223879 8.53467 0.141873 8.41279 0.08564C8.2909 0.0294071 8.15826 0.000286102 8.02403 0.000286102C7.8898 0.000286102 7.75716 0.0294071 7.63527 0.08564C7.51339 0.141873 7.40515 0.223879 7.31803 0.326Z" fill="black"/>
</svg>
