<svg width="512" height="512" viewBox="0 0 512 512" fill="none" xmlns="http://www.w3.org/2000/svg">
<path d="M360 368C355.757 368 351.687 366.314 348.686 363.314C345.686 360.313 344 356.243 344 352C344.055 332.316 337.483 313.186 325.344 297.69C313.205 282.195 296.205 271.235 277.08 266.576C273.817 265.777 270.888 263.97 268.709 261.413C266.53 258.856 265.211 255.678 264.939 252.33C264.667 248.981 265.457 245.632 267.195 242.757C268.933 239.882 271.532 237.627 274.624 236.312C284.837 232.012 293.248 224.312 298.43 214.516C303.611 204.721 305.244 193.435 303.051 182.572C300.857 171.71 294.973 161.942 286.397 154.924C277.821 147.906 267.081 144.072 256 144.072C244.919 144.072 234.179 147.906 225.603 154.924C217.027 161.942 211.143 171.71 208.949 182.572C206.756 193.435 208.389 204.721 213.57 214.516C218.752 224.312 227.163 232.012 237.376 236.312C240.468 237.627 243.067 239.882 244.805 242.757C246.543 245.632 247.333 248.981 247.061 252.33C246.789 255.678 245.47 258.856 243.291 261.413C241.112 263.97 238.183 265.777 234.92 266.576C215.795 271.235 198.795 282.195 186.656 297.69C174.517 313.186 167.945 332.316 168 352C168 356.243 166.314 360.313 163.314 363.314C160.313 366.314 156.243 368 152 368C147.757 368 143.687 366.314 140.686 363.314C137.686 360.313 136 356.243 136 352C135.95 330.56 141.663 309.501 152.541 291.025C163.418 272.549 179.061 257.335 197.832 246.976C187.104 235.614 179.938 221.358 177.22 205.969C174.501 190.58 176.35 174.732 182.536 160.382C188.723 146.031 198.977 133.807 212.033 125.219C225.088 116.63 240.373 112.053 256 112.053C271.627 112.053 286.912 116.63 299.967 125.219C313.023 133.807 323.277 146.031 329.464 160.382C335.65 174.732 337.499 190.58 334.78 205.969C332.062 221.358 324.896 235.614 314.168 246.976C332.939 257.335 348.582 272.549 359.459 291.025C370.337 309.501 376.05 330.56 376 352C376 356.243 374.314 360.313 371.314 363.314C368.313 366.314 364.243 368 360 368Z" fill="#3D362F"/>
<path d="M256 496C222.322 495.966 189.027 488.845 158.282 475.099C127.537 461.353 100.028 441.29 77.5461 416.215C55.0637 391.14 38.1104 361.613 27.7887 329.556C17.4669 297.498 14.0077 263.627 17.6359 230.144C21.2642 196.662 31.8986 164.318 48.8479 135.216C65.7972 106.113 88.6817 80.9037 116.014 61.2264C143.346 41.549 174.513 27.8444 207.489 21.0034C240.465 14.1625 274.512 14.3385 307.416 21.52C311.564 22.426 315.182 24.9426 317.475 28.5163C319.767 32.09 320.546 36.428 319.64 40.576C318.734 44.724 316.217 48.3422 312.644 50.6346C309.07 52.9271 304.732 53.706 300.584 52.8C255.404 42.919 208.219 48.391 166.499 68.3496C124.78 88.3082 90.9097 121.613 70.2518 162.991C49.5939 204.368 43.3285 251.455 52.4476 296.795C61.5668 342.134 85.5493 383.137 120.598 413.311C155.647 443.484 199.76 461.104 245.951 463.381C292.143 465.659 337.775 452.462 375.621 425.883C413.468 399.303 441.367 360.858 454.902 316.634C468.436 272.411 466.832 224.937 450.344 181.728C448.827 177.765 448.946 173.361 450.676 169.486C452.406 165.61 455.605 162.581 459.568 161.064C463.531 159.547 467.935 159.667 471.81 161.396C475.686 163.126 478.715 166.325 480.232 170.288C494.096 206.637 498.921 245.811 494.292 284.438C489.662 323.065 475.718 359.99 453.657 392.034C431.597 424.078 402.081 450.283 367.65 468.393C333.219 486.504 294.904 495.978 256 496Z" fill="#3D362F"/>
<path d="M400 184C396.969 183.998 394 183.135 391.44 181.512C388.352 179.535 385.489 177.225 382.904 174.624L336.744 128.728C334.139 126.164 331.819 123.327 329.824 120.264C322.332 109.413 318.923 96.2604 320.2 83.1363C321.476 70.0122 327.357 57.7635 336.8 48.56C344.93 40.4702 355.316 35.0279 366.596 32.9477C377.875 30.8675 389.519 32.2466 400 36.904C411.262 31.8641 423.862 30.637 435.885 33.4089C447.908 36.1808 458.699 42.8004 466.618 52.2625C474.537 61.7246 479.152 73.5124 479.762 85.8359C480.373 98.1595 476.945 110.346 470 120.544C468.045 123.496 465.787 126.236 463.264 128.72L417.088 174.632C414.505 177.23 411.645 179.537 408.56 181.512C406 183.135 403.031 183.998 400 184ZM376.864 64C373.595 63.9948 370.357 64.636 367.336 65.8868C364.316 67.1375 361.572 68.9731 359.264 71.288C355.162 75.2888 352.616 80.6173 352.079 86.3222C351.543 92.027 353.052 97.7367 356.336 102.432C357.181 103.74 358.165 104.952 359.272 106.048L400 146.504L440.696 106.04C441.655 105.108 442.513 104.079 443.256 102.968C443.376 102.792 443.496 102.608 443.624 102.432C446.906 97.7458 448.417 92.0466 447.888 86.35C447.359 80.6535 444.824 75.3298 440.736 71.328C436.612 67.2996 431.233 64.8049 425.494 64.259C419.754 63.7132 414.001 65.1492 409.192 68.328C406.498 70.2215 403.285 71.2375 399.992 71.2375C396.699 71.2375 393.486 70.2215 390.792 68.328C386.706 65.4855 381.842 63.9739 376.864 64Z" fill="#3D362F"/>
</svg>
