<svg width="512" height="512" viewBox="0 0 512 512" fill="none" xmlns="http://www.w3.org/2000/svg">
<path d="M272 448C280.837 448 288 440.837 288 432C288 423.163 280.837 416 272 416C263.163 416 256 423.163 256 432C256 440.837 263.163 448 272 448Z" fill="#3D362F"/>
<path d="M168 390.967V473.033C168.002 474.88 168.736 476.651 170.043 477.957C171.349 479.264 173.12 479.998 174.967 480H369.033C370.88 479.998 372.651 479.264 373.957 477.957C375.264 476.651 375.998 474.88 376 473.033V390.967C375.998 389.12 375.264 387.349 373.957 386.043C372.651 384.736 370.88 384.002 369.033 384H174.967C173.12 384.002 171.349 384.736 170.043 386.043C168.736 387.349 168.002 389.12 168 390.967ZM272 400C278.329 400 284.516 401.877 289.778 405.393C295.041 408.909 299.142 413.907 301.564 419.754C303.986 425.601 304.62 432.035 303.385 438.243C302.15 444.45 299.103 450.152 294.627 454.627C290.152 459.103 284.45 462.15 278.243 463.385C272.035 464.62 265.601 463.986 259.754 461.564C253.907 459.142 248.909 455.041 245.393 449.778C241.877 444.516 240 438.329 240 432C240.01 423.516 243.384 415.382 249.383 409.383C255.382 403.384 263.516 400.01 272 400Z" fill="#3D362F"/>
<path d="M440 472V448H392V473.033C392.001 475.397 391.635 477.747 390.917 480H432C434.121 479.998 436.154 479.154 437.654 477.654C439.154 476.154 439.998 474.121 440 472Z" fill="#3D362F"/>
<path d="M192 352H352V368H192V352Z" fill="#3D362F"/>
<path d="M400 272C413.255 272 424 268.418 424 264C424 259.582 413.255 256 400 256C386.745 256 376 259.582 376 264C376 268.418 386.745 272 400 272Z" fill="#3D362F"/>
<path d="M56 247.48L86.078 473.057C86.3394 474.976 87.2861 476.737 88.7436 478.013C90.2011 479.289 92.0709 479.995 94.008 480H153.083C152.365 477.747 151.999 475.397 152 473.033V390.967C152.007 384.878 154.429 379.04 158.734 374.734C163.04 370.429 168.878 368.007 174.967 368H176V344C176 341.878 176.843 339.843 178.343 338.343C179.843 336.843 181.878 336 184 336C204.579 336 215.7 326.591 228.573 315.7C232.246 312.592 236.039 309.387 240.156 306.306L248 247.48C247.836 224.239 238.496 202.005 222.013 185.62C205.531 169.234 183.241 160.026 160 160H144C120.759 160.026 98.4692 169.234 81.9866 185.62C65.5039 202.005 56.1635 224.239 56 247.48ZM96 224C96 221.878 96.8429 219.843 98.3431 218.343C99.8434 216.843 101.878 216 104 216H200C202.122 216 204.157 216.843 205.657 218.343C207.157 219.843 208 221.878 208 224V272C208 274.122 207.157 276.157 205.657 277.657C204.157 279.157 202.122 280 200 280H104C101.878 280 99.8434 279.157 98.3431 277.657C96.8429 276.157 96 274.122 96 272V224Z" fill="#3D362F"/>
<path d="M113.444 144H144H160H190.556L185.223 112H118.777L113.444 144Z" fill="#3D362F"/>
<path d="M232 32.551L125.891 39.625L123.1 48H232V32.551Z" fill="#3D362F"/>
<path d="M290.918 312.823C289.191 310.279 288.032 307.393 287.518 304.361C264.318 306.412 251.938 316.887 238.912 327.91C235.689 330.637 232.438 333.384 229.024 336H349.312C349.212 335.819 349.122 335.638 349.02 335.457C346.133 330.369 342 328 336 328C312.85 328 297.683 322.894 290.918 312.823Z" fill="#3D362F"/>
<path d="M328 176H472V192H328V176Z" fill="#3D362F"/>
<path d="M329.137 208L343.1 312.744C347.4 313.657 351.443 315.517 354.934 318.189C358.425 320.86 361.276 324.277 363.281 328.189C365.767 332.845 367.352 337.928 367.954 343.171V343.198C367.954 343.248 367.965 343.305 367.967 343.336C367.985 343.556 368 343.776 368 344V368H369.033C375.122 368.007 380.96 370.429 385.266 374.734C389.571 379.04 391.993 384.878 392 390.967V432H441L470.867 208H329.137ZM400 288C377.2 288 360 277.683 360 264C360 250.317 377.2 240 400 240C422.8 240 440 250.317 440 264C440 277.683 422.8 288 400 288Z" fill="#3D362F"/>
<path d="M112 232H192V264H112V232Z" fill="#3D362F"/>
<path d="M136 64H168V96H136V64Z" fill="#3D362F"/>
</svg>
