<svg width="50" height="42" viewBox="0 0 50 42" fill="none" xmlns="http://www.w3.org/2000/svg">
<path d="M5.17707 16.0376L20.3861 32.2719L13.0623 16.0376H5.17707ZM25 34.884L33.52 16.0376H16.4801L25 34.884ZM13.1356 12.9128L18.1157 3.53838H11.7196L4.68882 12.9128H13.1355H13.1356ZM29.614 32.2719L44.8229 16.0376H36.9377L29.614 32.2719ZM16.6753 12.9128H33.3247L28.3445 3.53838H21.6555L16.6753 12.9128ZM36.8645 12.9128H45.3112L38.2804 3.53838H31.8844L36.8645 12.9128ZM40.3066 1.04831L49.681 13.5475C49.9089 13.8405 50.0147 14.1782 49.9984 14.5606C49.9821 14.9431 49.8438 15.2726 49.5834 15.5493L26.1474 40.5477C25.8544 40.8732 25.472 41.0359 25 41.0359C24.528 41.0359 24.1456 40.8732 23.8526 40.5477L0.416639 15.5493C0.156241 15.2727 0.0179036 14.9431 0.0016276 14.5606C-0.0146484 14.1782 0.0911458 13.8405 0.31901 13.5475L9.6934 1.04834C9.98635 0.625163 10.4014 0.413574 10.9384 0.413574H39.0616C39.5987 0.413574 40.0137 0.625135 40.3066 1.04831Z" fill="#3D362F"/>
</svg>
